<mxfile host="app.diagrams.net" modified="2024-04-24T05:52:39.890Z" agent="Mozilla/5.0 (Windows NT 10.0; Win64; x64) AppleWebKit/537.36 (KHTML, like Gecko) Chrome/124.0.0.0 Safari/537.36" etag="V70kE_k9y1FuYcwg17d0" version="24.2.8" type="github">
  <diagram name="페이지-1" id="YjlreFpDYbA_ZAiuzA0E">
    <mxGraphModel dx="3184" dy="1680" grid="1" gridSize="10" guides="1" tooltips="1" connect="1" arrows="1" fold="1" page="1" pageScale="1" pageWidth="827" pageHeight="1169" math="0" shadow="0">
      <root>
        <mxCell id="0" />
        <mxCell id="1" parent="0" />
        <mxCell id="TUvRqALWJ90GoiGurT2q-198" value="" style="whiteSpace=wrap;html=1;rounded=0;fillColor=#ffe6cc;strokeColor=default;strokeWidth=4;opacity=50;" vertex="1" parent="1">
          <mxGeometry x="40" y="830" width="3380" height="658" as="geometry" />
        </mxCell>
        <mxCell id="TUvRqALWJ90GoiGurT2q-159" value="" style="whiteSpace=wrap;html=1;rounded=0;fillColor=#ffe6cc;strokeColor=default;strokeWidth=4;opacity=50;" vertex="1" parent="1">
          <mxGeometry x="40" y="110" width="3380" height="658" as="geometry" />
        </mxCell>
        <mxCell id="TUvRqALWJ90GoiGurT2q-31" value="&amp;lt;POSTMAN&amp;gt;&lt;br&gt;&lt;b&gt;SITE_CONTACT_LIST&lt;/b&gt;" style="shape=cylinder3;whiteSpace=wrap;html=1;boundedLbl=1;backgroundOutline=1;size=15;fillColor=#dae8fc;strokeColor=#6c8ebf;" vertex="1" parent="1">
          <mxGeometry x="2545" y="608" width="210" height="80" as="geometry" />
        </mxCell>
        <mxCell id="TUvRqALWJ90GoiGurT2q-33" value="&amp;lt;MariaDB 49번&amp;gt;&lt;br&gt;&lt;b&gt;amc.CONTACT_LIST&lt;/b&gt;" style="shape=cylinder3;whiteSpace=wrap;html=1;boundedLbl=1;backgroundOutline=1;size=15;fillColor=#ffe6cc;strokeColor=#d79b00;" vertex="1" parent="1">
          <mxGeometry x="2025" y="608" width="210" height="80" as="geometry" />
        </mxCell>
        <mxCell id="TUvRqALWJ90GoiGurT2q-34" value="" style="edgeStyle=orthogonalEdgeStyle;rounded=0;orthogonalLoop=1;jettySize=auto;html=1;" edge="1" parent="1" source="TUvRqALWJ90GoiGurT2q-35" target="TUvRqALWJ90GoiGurT2q-41">
          <mxGeometry relative="1" as="geometry">
            <mxPoint x="250" y="458" as="targetPoint" />
          </mxGeometry>
        </mxCell>
        <mxCell id="TUvRqALWJ90GoiGurT2q-35" value="amc-trk" style="rounded=0;whiteSpace=wrap;html=1;fillColor=#d5e8d4;strokeColor=#82b366;fontStyle=1" vertex="1" parent="1">
          <mxGeometry x="60" y="128" width="120" height="60" as="geometry" />
        </mxCell>
        <mxCell id="TUvRqALWJ90GoiGurT2q-36" value="" style="edgeStyle=orthogonalEdgeStyle;rounded=0;orthogonalLoop=1;jettySize=auto;html=1;" edge="1" parent="1" source="TUvRqALWJ90GoiGurT2q-37" target="TUvRqALWJ90GoiGurT2q-39">
          <mxGeometry relative="1" as="geometry" />
        </mxCell>
        <mxCell id="TUvRqALWJ90GoiGurT2q-37" value="processingForProp(UserProp)" style="rounded=0;whiteSpace=wrap;html=1;" vertex="1" parent="1">
          <mxGeometry x="240" y="428" width="180" height="60" as="geometry" />
        </mxCell>
        <mxCell id="TUvRqALWJ90GoiGurT2q-38" value="" style="edgeStyle=orthogonalEdgeStyle;rounded=0;orthogonalLoop=1;jettySize=auto;html=1;" edge="1" parent="1" source="TUvRqALWJ90GoiGurT2q-39" target="TUvRqALWJ90GoiGurT2q-45">
          <mxGeometry relative="1" as="geometry" />
        </mxCell>
        <mxCell id="TUvRqALWJ90GoiGurT2q-39" value="UserProp 객체로 &lt;br&gt;kafka message 받음" style="rounded=0;whiteSpace=wrap;html=1;" vertex="1" parent="1">
          <mxGeometry x="470" y="428" width="140" height="60" as="geometry" />
        </mxCell>
        <mxCell id="TUvRqALWJ90GoiGurT2q-40" style="edgeStyle=orthogonalEdgeStyle;rounded=0;orthogonalLoop=1;jettySize=auto;html=1;" edge="1" parent="1" source="TUvRqALWJ90GoiGurT2q-41" target="TUvRqALWJ90GoiGurT2q-37">
          <mxGeometry relative="1" as="geometry" />
        </mxCell>
        <mxCell id="TUvRqALWJ90GoiGurT2q-41" value="Kafka Consume&lt;br&gt;Topic: amc-prop" style="rounded=0;whiteSpace=wrap;html=1;" vertex="1" parent="1">
          <mxGeometry x="60" y="428" width="120" height="60" as="geometry" />
        </mxCell>
        <mxCell id="TUvRqALWJ90GoiGurT2q-42" style="edgeStyle=orthogonalEdgeStyle;rounded=0;orthogonalLoop=1;jettySize=auto;html=1;entryX=0.25;entryY=1;entryDx=0;entryDy=0;" edge="1" parent="1" source="TUvRqALWJ90GoiGurT2q-43" target="TUvRqALWJ90GoiGurT2q-45">
          <mxGeometry relative="1" as="geometry">
            <Array as="points">
              <mxPoint x="625" y="538" />
              <mxPoint x="705" y="538" />
            </Array>
          </mxGeometry>
        </mxCell>
        <mxCell id="TUvRqALWJ90GoiGurT2q-43" value="&amp;lt;MariaDB 49번&amp;gt;&lt;br&gt;&lt;b&gt;amc.APP_INFO&lt;/b&gt;" style="shape=cylinder3;whiteSpace=wrap;html=1;boundedLbl=1;backgroundOutline=1;size=15;fillColor=#ffe6cc;strokeColor=#d79b00;" vertex="1" parent="1">
          <mxGeometry x="520" y="578" width="210" height="80" as="geometry" />
        </mxCell>
        <mxCell id="TUvRqALWJ90GoiGurT2q-44" value="" style="edgeStyle=orthogonalEdgeStyle;rounded=0;orthogonalLoop=1;jettySize=auto;html=1;" edge="1" parent="1" source="TUvRqALWJ90GoiGurT2q-45" target="TUvRqALWJ90GoiGurT2q-50">
          <mxGeometry relative="1" as="geometry" />
        </mxCell>
        <mxCell id="TUvRqALWJ90GoiGurT2q-45" value="key (ma에서 appkey)로&lt;br&gt;amc.APP_INFO,&lt;br&gt;amc.SITE_INFO 조회해서 사이트 존재여부 확인" style="rounded=0;whiteSpace=wrap;html=1;" vertex="1" parent="1">
          <mxGeometry x="670" y="418" width="140" height="80" as="geometry" />
        </mxCell>
        <mxCell id="TUvRqALWJ90GoiGurT2q-46" style="edgeStyle=orthogonalEdgeStyle;rounded=0;orthogonalLoop=1;jettySize=auto;html=1;entryX=0.75;entryY=1;entryDx=0;entryDy=0;exitX=0.5;exitY=0;exitDx=0;exitDy=0;exitPerimeter=0;" edge="1" parent="1" source="TUvRqALWJ90GoiGurT2q-47" target="TUvRqALWJ90GoiGurT2q-45">
          <mxGeometry relative="1" as="geometry">
            <Array as="points">
              <mxPoint x="855" y="538" />
              <mxPoint x="775" y="538" />
            </Array>
          </mxGeometry>
        </mxCell>
        <mxCell id="TUvRqALWJ90GoiGurT2q-47" value="&amp;lt;MariaDB 49번&amp;gt;&lt;br&gt;&lt;b&gt;amc.SITE_INFO&lt;/b&gt;" style="shape=cylinder3;whiteSpace=wrap;html=1;boundedLbl=1;backgroundOutline=1;size=15;fillColor=#ffe6cc;strokeColor=#d79b00;" vertex="1" parent="1">
          <mxGeometry x="750" y="578" width="210" height="80" as="geometry" />
        </mxCell>
        <mxCell id="TUvRqALWJ90GoiGurT2q-48" value="" style="edgeStyle=orthogonalEdgeStyle;rounded=0;orthogonalLoop=1;jettySize=auto;html=1;" edge="1" parent="1" source="TUvRqALWJ90GoiGurT2q-50" target="TUvRqALWJ90GoiGurT2q-53">
          <mxGeometry relative="1" as="geometry" />
        </mxCell>
        <mxCell id="TUvRqALWJ90GoiGurT2q-49" value="" style="edgeStyle=orthogonalEdgeStyle;rounded=0;orthogonalLoop=1;jettySize=auto;html=1;endArrow=classic;endFill=1;" edge="1" parent="1" source="TUvRqALWJ90GoiGurT2q-50" target="TUvRqALWJ90GoiGurT2q-55">
          <mxGeometry relative="1" as="geometry" />
        </mxCell>
        <mxCell id="TUvRqALWJ90GoiGurT2q-50" value="userProp에서 회원 userId 유무체크" style="whiteSpace=wrap;html=1;rounded=0;" vertex="1" parent="1">
          <mxGeometry x="880" y="428" width="120" height="60" as="geometry" />
        </mxCell>
        <mxCell id="TUvRqALWJ90GoiGurT2q-51" value="" style="edgeStyle=orthogonalEdgeStyle;rounded=0;orthogonalLoop=1;jettySize=auto;html=1;endArrow=none;endFill=0;" edge="1" parent="1" source="TUvRqALWJ90GoiGurT2q-53" target="TUvRqALWJ90GoiGurT2q-57">
          <mxGeometry relative="1" as="geometry" />
        </mxCell>
        <mxCell id="TUvRqALWJ90GoiGurT2q-52" value="" style="edgeStyle=orthogonalEdgeStyle;rounded=0;orthogonalLoop=1;jettySize=auto;html=1;endArrow=none;endFill=0;" edge="1" parent="1" source="TUvRqALWJ90GoiGurT2q-53" target="TUvRqALWJ90GoiGurT2q-59">
          <mxGeometry relative="1" as="geometry" />
        </mxCell>
        <mxCell id="TUvRqALWJ90GoiGurT2q-53" value="userProp에서 data를 customData 라는 Map으로 변환" style="whiteSpace=wrap;html=1;rounded=0;" vertex="1" parent="1">
          <mxGeometry x="1070" y="428" width="180" height="60" as="geometry" />
        </mxCell>
        <mxCell id="TUvRqALWJ90GoiGurT2q-54" value="&lt;b&gt;data (cafe24 동기화 시)정보:&lt;/b&gt;&lt;br&gt;name&lt;br&gt;email&lt;br&gt;phone&lt;br&gt;emailFlag&lt;br&gt;smsFlag" style="whiteSpace=wrap;html=1;rounded=0;fillColor=#f8cecc;strokeColor=#b85450;" vertex="1" parent="1">
          <mxGeometry x="1070" y="298" width="180" height="100" as="geometry" />
        </mxCell>
        <mxCell id="TUvRqALWJ90GoiGurT2q-55" value="없으면&amp;nbsp; return" style="whiteSpace=wrap;html=1;rounded=0;" vertex="1" parent="1">
          <mxGeometry x="880" y="288" width="120" height="60" as="geometry" />
        </mxCell>
        <mxCell id="TUvRqALWJ90GoiGurT2q-56" value="" style="edgeStyle=orthogonalEdgeStyle;rounded=0;orthogonalLoop=1;jettySize=auto;html=1;endArrow=classic;endFill=1;" edge="1" parent="1" source="TUvRqALWJ90GoiGurT2q-57" target="TUvRqALWJ90GoiGurT2q-83">
          <mxGeometry relative="1" as="geometry" />
        </mxCell>
        <mxCell id="TUvRqALWJ90GoiGurT2q-57" value="customData에서 deleteMbs값이 T인 경우" style="whiteSpace=wrap;html=1;rounded=0;" vertex="1" parent="1">
          <mxGeometry x="1330" y="388" width="180" height="60" as="geometry" />
        </mxCell>
        <mxCell id="TUvRqALWJ90GoiGurT2q-58" value="" style="edgeStyle=orthogonalEdgeStyle;rounded=0;orthogonalLoop=1;jettySize=auto;html=1;endArrow=classic;endFill=1;" edge="1" parent="1" source="TUvRqALWJ90GoiGurT2q-59" target="TUvRqALWJ90GoiGurT2q-61">
          <mxGeometry relative="1" as="geometry" />
        </mxCell>
        <mxCell id="TUvRqALWJ90GoiGurT2q-59" value="Else" style="whiteSpace=wrap;html=1;rounded=0;" vertex="1" parent="1">
          <mxGeometry x="1330" y="488" width="180" height="60" as="geometry" />
        </mxCell>
        <mxCell id="TUvRqALWJ90GoiGurT2q-60" value="" style="edgeStyle=orthogonalEdgeStyle;rounded=0;orthogonalLoop=1;jettySize=auto;html=1;endArrow=classic;endFill=1;" edge="1" parent="1" source="TUvRqALWJ90GoiGurT2q-61" target="TUvRqALWJ90GoiGurT2q-65">
          <mxGeometry relative="1" as="geometry" />
        </mxCell>
        <mxCell id="TUvRqALWJ90GoiGurT2q-61" value="Redis 검색으로 &lt;br&gt;신규 회원인지 확인,..??" style="whiteSpace=wrap;html=1;rounded=0;" vertex="1" parent="1">
          <mxGeometry x="1590" y="488" width="180" height="60" as="geometry" />
        </mxCell>
        <mxCell id="TUvRqALWJ90GoiGurT2q-62" style="edgeStyle=orthogonalEdgeStyle;rounded=0;orthogonalLoop=1;jettySize=auto;html=1;endArrow=classic;endFill=1;dashed=1;" edge="1" parent="1" source="TUvRqALWJ90GoiGurT2q-63" target="TUvRqALWJ90GoiGurT2q-61">
          <mxGeometry relative="1" as="geometry" />
        </mxCell>
        <mxCell id="TUvRqALWJ90GoiGurT2q-63" value="&amp;lt;Redis&amp;gt;&lt;br&gt;" style="shape=cylinder3;whiteSpace=wrap;html=1;boundedLbl=1;backgroundOutline=1;size=15;fillColor=#e1d5e7;strokeColor=#9673a6;" vertex="1" parent="1">
          <mxGeometry x="1575" y="608" width="210" height="80" as="geometry" />
        </mxCell>
        <mxCell id="TUvRqALWJ90GoiGurT2q-64" value="" style="edgeStyle=orthogonalEdgeStyle;rounded=0;orthogonalLoop=1;jettySize=auto;html=1;endArrow=classic;endFill=1;" edge="1" parent="1" source="TUvRqALWJ90GoiGurT2q-65" target="TUvRqALWJ90GoiGurT2q-68">
          <mxGeometry relative="1" as="geometry" />
        </mxCell>
        <mxCell id="TUvRqALWJ90GoiGurT2q-65" value="Contact 객체 생성" style="whiteSpace=wrap;html=1;rounded=0;" vertex="1" parent="1">
          <mxGeometry x="1850" y="488" width="150" height="60" as="geometry" />
        </mxCell>
        <mxCell id="TUvRqALWJ90GoiGurT2q-66" style="edgeStyle=orthogonalEdgeStyle;rounded=0;orthogonalLoop=1;jettySize=auto;html=1;endArrow=classic;endFill=1;" edge="1" parent="1" source="TUvRqALWJ90GoiGurT2q-68" target="TUvRqALWJ90GoiGurT2q-33">
          <mxGeometry relative="1" as="geometry" />
        </mxCell>
        <mxCell id="TUvRqALWJ90GoiGurT2q-67" value="" style="edgeStyle=orthogonalEdgeStyle;rounded=0;orthogonalLoop=1;jettySize=auto;html=1;endArrow=classic;endFill=1;" edge="1" parent="1" source="TUvRqALWJ90GoiGurT2q-68" target="TUvRqALWJ90GoiGurT2q-71">
          <mxGeometry relative="1" as="geometry" />
        </mxCell>
        <mxCell id="TUvRqALWJ90GoiGurT2q-68" value="회원정보 &lt;br&gt;amc.CONTACT_LIST에 저장" style="whiteSpace=wrap;html=1;rounded=0;" vertex="1" parent="1">
          <mxGeometry x="2040" y="488" width="180" height="60" as="geometry" />
        </mxCell>
        <mxCell id="TUvRqALWJ90GoiGurT2q-69" style="edgeStyle=orthogonalEdgeStyle;rounded=0;orthogonalLoop=1;jettySize=auto;html=1;endArrow=classic;endFill=1;" edge="1" parent="1" source="TUvRqALWJ90GoiGurT2q-71" target="TUvRqALWJ90GoiGurT2q-72">
          <mxGeometry relative="1" as="geometry" />
        </mxCell>
        <mxCell id="TUvRqALWJ90GoiGurT2q-70" value="" style="edgeStyle=orthogonalEdgeStyle;rounded=0;orthogonalLoop=1;jettySize=auto;html=1;endArrow=classic;endFill=1;" edge="1" parent="1" source="TUvRqALWJ90GoiGurT2q-71" target="TUvRqALWJ90GoiGurT2q-76">
          <mxGeometry relative="1" as="geometry" />
        </mxCell>
        <mxCell id="TUvRqALWJ90GoiGurT2q-71" value="신규회원인 경우 Redis에 저장&lt;br&gt;(영구 저장)" style="whiteSpace=wrap;html=1;rounded=0;" vertex="1" parent="1">
          <mxGeometry x="2300" y="488" width="180" height="60" as="geometry" />
        </mxCell>
        <mxCell id="TUvRqALWJ90GoiGurT2q-72" value="&amp;lt;Redis&amp;gt;&lt;br&gt;" style="shape=cylinder3;whiteSpace=wrap;html=1;boundedLbl=1;backgroundOutline=1;size=15;fillColor=#e1d5e7;strokeColor=#9673a6;" vertex="1" parent="1">
          <mxGeometry x="2285" y="608" width="210" height="80" as="geometry" />
        </mxCell>
        <mxCell id="TUvRqALWJ90GoiGurT2q-73" value="&amp;lt;MariaDB 49번&amp;gt;&lt;br&gt;&lt;b&gt;amc.CONTACT_HIST&lt;br&gt;(주의: CONTACT_LIST랑 다름)&lt;br&gt;&lt;/b&gt;" style="shape=cylinder3;whiteSpace=wrap;html=1;boundedLbl=1;backgroundOutline=1;size=15;fillColor=#ffe6cc;strokeColor=#d79b00;" vertex="1" parent="1">
          <mxGeometry x="1820" y="178" width="210" height="120" as="geometry" />
        </mxCell>
        <mxCell id="TUvRqALWJ90GoiGurT2q-74" style="edgeStyle=orthogonalEdgeStyle;rounded=0;orthogonalLoop=1;jettySize=auto;html=1;endArrow=classic;endFill=1;" edge="1" parent="1" source="TUvRqALWJ90GoiGurT2q-76" target="TUvRqALWJ90GoiGurT2q-31">
          <mxGeometry relative="1" as="geometry" />
        </mxCell>
        <mxCell id="TUvRqALWJ90GoiGurT2q-76" value="회원정보&lt;br&gt;SITE_CONTACT_LIST에&lt;br&gt;저장 (MERGE 사용)" style="whiteSpace=wrap;html=1;rounded=0;" vertex="1" parent="1">
          <mxGeometry x="2560" y="488" width="180" height="60" as="geometry" />
        </mxCell>
        <mxCell id="TUvRqALWJ90GoiGurT2q-80" value="&amp;lt;POSTMAN&amp;gt;&lt;br&gt;&lt;b&gt;SITE_CONTACT_LIST&lt;/b&gt;" style="shape=cylinder3;whiteSpace=wrap;html=1;boundedLbl=1;backgroundOutline=1;size=15;fillColor=#dae8fc;strokeColor=#6c8ebf;" vertex="1" parent="1">
          <mxGeometry x="1575" y="218" width="210" height="80" as="geometry" />
        </mxCell>
        <mxCell id="TUvRqALWJ90GoiGurT2q-81" style="edgeStyle=orthogonalEdgeStyle;rounded=0;orthogonalLoop=1;jettySize=auto;html=1;entryX=0.5;entryY=1;entryDx=0;entryDy=0;entryPerimeter=0;endArrow=classic;endFill=1;fillColor=#f8cecc;strokeColor=#b85450;strokeWidth=3;" edge="1" parent="1" source="TUvRqALWJ90GoiGurT2q-83" target="TUvRqALWJ90GoiGurT2q-80">
          <mxGeometry relative="1" as="geometry" />
        </mxCell>
        <mxCell id="TUvRqALWJ90GoiGurT2q-82" value="" style="edgeStyle=orthogonalEdgeStyle;rounded=0;orthogonalLoop=1;jettySize=auto;html=1;endArrow=classic;endFill=1;" edge="1" parent="1" source="TUvRqALWJ90GoiGurT2q-83" target="TUvRqALWJ90GoiGurT2q-85">
          <mxGeometry relative="1" as="geometry" />
        </mxCell>
        <mxCell id="TUvRqALWJ90GoiGurT2q-83" value="SITE_CONTACT_LIST에서&lt;br&gt;회원삭제 sql DELETE문으로 &lt;br&gt;삭제" style="whiteSpace=wrap;html=1;rounded=0;" vertex="1" parent="1">
          <mxGeometry x="1590" y="388" width="180" height="60" as="geometry" />
        </mxCell>
        <mxCell id="TUvRqALWJ90GoiGurT2q-84" style="edgeStyle=orthogonalEdgeStyle;rounded=0;orthogonalLoop=1;jettySize=auto;html=1;entryX=0.5;entryY=1;entryDx=0;entryDy=0;entryPerimeter=0;endArrow=classic;endFill=1;" edge="1" parent="1" source="TUvRqALWJ90GoiGurT2q-85" target="TUvRqALWJ90GoiGurT2q-73">
          <mxGeometry relative="1" as="geometry" />
        </mxCell>
        <mxCell id="TUvRqALWJ90GoiGurT2q-85" value="amc.CONTACT_HIST에&lt;br&gt;code값 &#39;DELETE&#39; 로 저장" style="whiteSpace=wrap;html=1;rounded=0;" vertex="1" parent="1">
          <mxGeometry x="1850" y="388" width="150" height="60" as="geometry" />
        </mxCell>
        <mxCell id="TUvRqALWJ90GoiGurT2q-115" value="" style="whiteSpace=wrap;html=1;rounded=0;fillColor=none;strokeColor=#82b366;strokeWidth=6;dashed=1;" vertex="1" parent="1">
          <mxGeometry x="1985" y="578" width="280" height="140" as="geometry" />
        </mxCell>
        <mxCell id="TUvRqALWJ90GoiGurT2q-116" value="" style="whiteSpace=wrap;html=1;rounded=0;fillColor=none;strokeColor=#82b366;strokeWidth=6;dashed=1;" vertex="1" parent="1">
          <mxGeometry x="2515" y="578" width="260" height="140" as="geometry" />
        </mxCell>
        <mxCell id="TUvRqALWJ90GoiGurT2q-118" value="" style="whiteSpace=wrap;html=1;rounded=0;fillColor=none;strokeColor=#82b366;strokeWidth=6;dashed=1;" vertex="1" parent="1">
          <mxGeometry x="1495" y="148" width="620" height="180" as="geometry" />
        </mxCell>
        <mxCell id="TUvRqALWJ90GoiGurT2q-152" value="siteInfo에서 channelType을 확인하여 Makeshop&amp;nbsp; or WiSA일 경우&lt;div&gt;토픽 전달&amp;nbsp;&lt;/div&gt;" style="whiteSpace=wrap;html=1;rounded=0;" vertex="1" parent="1">
          <mxGeometry x="1030" y="618" width="260" height="60" as="geometry" />
        </mxCell>
        <mxCell id="TUvRqALWJ90GoiGurT2q-154" value="" style="endArrow=classic;html=1;rounded=0;exitX=0.5;exitY=1;exitDx=0;exitDy=0;entryX=0.5;entryY=0;entryDx=0;entryDy=0;" edge="1" parent="1" source="TUvRqALWJ90GoiGurT2q-53" target="TUvRqALWJ90GoiGurT2q-152">
          <mxGeometry width="50" height="50" relative="1" as="geometry">
            <mxPoint x="1390" y="610" as="sourcePoint" />
            <mxPoint x="1440" y="560" as="targetPoint" />
          </mxGeometry>
        </mxCell>
        <mxCell id="TUvRqALWJ90GoiGurT2q-156" value="tma-trk" style="rounded=0;whiteSpace=wrap;html=1;fillColor=#d5e8d4;strokeColor=#82b366;fontStyle=1" vertex="1" parent="1">
          <mxGeometry x="60" y="860" width="120" height="60" as="geometry" />
        </mxCell>
        <mxCell id="TUvRqALWJ90GoiGurT2q-157" value="" style="edgeStyle=orthogonalEdgeStyle;rounded=0;orthogonalLoop=1;jettySize=auto;html=1;" edge="1" parent="1" target="TUvRqALWJ90GoiGurT2q-158">
          <mxGeometry relative="1" as="geometry">
            <mxPoint x="250" y="1190" as="targetPoint" />
            <mxPoint x="120" y="920" as="sourcePoint" />
          </mxGeometry>
        </mxCell>
        <mxCell id="TUvRqALWJ90GoiGurT2q-158" value="Kafka Consume&lt;br&gt;Topic: ma-prop" style="rounded=0;whiteSpace=wrap;html=1;" vertex="1" parent="1">
          <mxGeometry x="60" y="1060" width="120" height="60" as="geometry" />
        </mxCell>
        <mxCell id="TUvRqALWJ90GoiGurT2q-161" value="" style="endArrow=classic;html=1;rounded=0;exitX=0.5;exitY=1;exitDx=0;exitDy=0;entryX=1;entryY=0.5;entryDx=0;entryDy=0;" edge="1" parent="1" source="TUvRqALWJ90GoiGurT2q-152" target="TUvRqALWJ90GoiGurT2q-156">
          <mxGeometry width="50" height="50" relative="1" as="geometry">
            <mxPoint x="1070" y="710" as="sourcePoint" />
            <mxPoint x="1150" y="900" as="targetPoint" />
            <Array as="points">
              <mxPoint x="1160" y="890" />
            </Array>
          </mxGeometry>
        </mxCell>
        <mxCell id="TUvRqALWJ90GoiGurT2q-162" value="processingForMaProp(UserProp)" style="rounded=0;whiteSpace=wrap;html=1;" vertex="1" parent="1">
          <mxGeometry x="230" y="1060" width="220" height="60" as="geometry" />
        </mxCell>
        <mxCell id="TUvRqALWJ90GoiGurT2q-163" style="edgeStyle=orthogonalEdgeStyle;rounded=0;orthogonalLoop=1;jettySize=auto;html=1;" edge="1" parent="1" target="TUvRqALWJ90GoiGurT2q-162">
          <mxGeometry relative="1" as="geometry">
            <mxPoint x="180" y="1090" as="sourcePoint" />
          </mxGeometry>
        </mxCell>
        <mxCell id="TUvRqALWJ90GoiGurT2q-164" value="" style="edgeStyle=orthogonalEdgeStyle;rounded=0;orthogonalLoop=1;jettySize=auto;html=1;" edge="1" parent="1" target="TUvRqALWJ90GoiGurT2q-165">
          <mxGeometry relative="1" as="geometry">
            <mxPoint x="450" y="1090" as="sourcePoint" />
          </mxGeometry>
        </mxCell>
        <mxCell id="TUvRqALWJ90GoiGurT2q-165" value="ChannelType 확인&amp;nbsp;" style="rounded=0;whiteSpace=wrap;html=1;" vertex="1" parent="1">
          <mxGeometry x="500" y="1060" width="250" height="60" as="geometry" />
        </mxCell>
        <mxCell id="TUvRqALWJ90GoiGurT2q-166" style="edgeStyle=orthogonalEdgeStyle;rounded=0;orthogonalLoop=1;jettySize=auto;html=1;entryX=0.25;entryY=1;entryDx=0;entryDy=0;" edge="1" parent="1" source="TUvRqALWJ90GoiGurT2q-167">
          <mxGeometry relative="1" as="geometry">
            <Array as="points">
              <mxPoint x="505" y="1160" />
              <mxPoint x="585" y="1160" />
            </Array>
            <mxPoint x="585" y="1120" as="targetPoint" />
          </mxGeometry>
        </mxCell>
        <mxCell id="TUvRqALWJ90GoiGurT2q-167" value="&amp;lt;MariaDB 49번&amp;gt;&lt;br&gt;&lt;b&gt;tma.APP_INFO&lt;/b&gt;" style="shape=cylinder3;whiteSpace=wrap;html=1;boundedLbl=1;backgroundOutline=1;size=15;fillColor=#ffe6cc;strokeColor=#d79b00;" vertex="1" parent="1">
          <mxGeometry x="400" y="1200" width="210" height="80" as="geometry" />
        </mxCell>
        <mxCell id="TUvRqALWJ90GoiGurT2q-168" style="edgeStyle=orthogonalEdgeStyle;rounded=0;orthogonalLoop=1;jettySize=auto;html=1;entryX=0.75;entryY=1;entryDx=0;entryDy=0;exitX=0.5;exitY=0;exitDx=0;exitDy=0;exitPerimeter=0;" edge="1" parent="1" source="TUvRqALWJ90GoiGurT2q-169">
          <mxGeometry relative="1" as="geometry">
            <Array as="points">
              <mxPoint x="735" y="1160" />
              <mxPoint x="655" y="1160" />
            </Array>
            <mxPoint x="655" y="1120" as="targetPoint" />
          </mxGeometry>
        </mxCell>
        <mxCell id="TUvRqALWJ90GoiGurT2q-169" value="&amp;lt;MariaDB 49번&amp;gt;&lt;br&gt;&lt;b&gt;tma.SITE_INFO&lt;/b&gt;" style="shape=cylinder3;whiteSpace=wrap;html=1;boundedLbl=1;backgroundOutline=1;size=15;fillColor=#ffe6cc;strokeColor=#d79b00;" vertex="1" parent="1">
          <mxGeometry x="630" y="1200" width="210" height="80" as="geometry" />
        </mxCell>
        <mxCell id="TUvRqALWJ90GoiGurT2q-171" value="Makeshop wisa 일 경우&amp;nbsp;&lt;div&gt;각 채널에 맞는clickhouse에 db적재&lt;div&gt;&lt;br&gt;&lt;/div&gt;&lt;/div&gt;" style="whiteSpace=wrap;html=1;rounded=0;" vertex="1" parent="1">
          <mxGeometry x="1010" y="1010" width="250" height="60" as="geometry" />
        </mxCell>
        <mxCell id="TUvRqALWJ90GoiGurT2q-172" value="&amp;lt;clickhouse 53번&amp;gt;&lt;br&gt;&lt;div&gt;&lt;b&gt;makeshop_tma.user&lt;/b&gt;&lt;/div&gt;" style="shape=cylinder3;whiteSpace=wrap;html=1;boundedLbl=1;backgroundOutline=1;size=15;fillColor=#ffcd28;strokeColor=#d79b00;gradientColor=#ffa500;" vertex="1" parent="1">
          <mxGeometry x="1370" y="950" width="210" height="80" as="geometry" />
        </mxCell>
        <mxCell id="TUvRqALWJ90GoiGurT2q-173" value="&amp;lt;clickhouse 53번&amp;gt;&lt;br&gt;&lt;div&gt;&lt;b&gt;wisa_tma.user&lt;/b&gt;&lt;/div&gt;" style="shape=cylinder3;whiteSpace=wrap;html=1;boundedLbl=1;backgroundOutline=1;size=15;fillColor=#ffcd28;strokeColor=#d79b00;gradientColor=#ffa500;" vertex="1" parent="1">
          <mxGeometry x="1370" y="1040" width="210" height="80" as="geometry" />
        </mxCell>
        <mxCell id="TUvRqALWJ90GoiGurT2q-174" value="" style="edgeStyle=orthogonalEdgeStyle;rounded=0;orthogonalLoop=1;jettySize=auto;html=1;exitX=1;exitY=0.5;exitDx=0;exitDy=0;entryX=0;entryY=0.5;entryDx=0;entryDy=0;entryPerimeter=0;" edge="1" parent="1" source="TUvRqALWJ90GoiGurT2q-171" target="TUvRqALWJ90GoiGurT2q-172">
          <mxGeometry relative="1" as="geometry">
            <mxPoint x="1260" y="1089.63" as="sourcePoint" />
            <mxPoint x="1340" y="1090" as="targetPoint" />
          </mxGeometry>
        </mxCell>
        <mxCell id="TUvRqALWJ90GoiGurT2q-175" value="" style="edgeStyle=orthogonalEdgeStyle;rounded=0;orthogonalLoop=1;jettySize=auto;html=1;exitX=1;exitY=0.5;exitDx=0;exitDy=0;entryX=0;entryY=0.5;entryDx=0;entryDy=0;entryPerimeter=0;" edge="1" parent="1" source="TUvRqALWJ90GoiGurT2q-171" target="TUvRqALWJ90GoiGurT2q-173">
          <mxGeometry relative="1" as="geometry">
            <mxPoint x="1270" y="1099.63" as="sourcePoint" />
            <mxPoint x="1350" y="1100" as="targetPoint" />
          </mxGeometry>
        </mxCell>
        <mxCell id="TUvRqALWJ90GoiGurT2q-183" value="Makeshop or Wisa 가 아닐 경우" style="whiteSpace=wrap;html=1;rounded=0;" vertex="1" parent="1">
          <mxGeometry x="1010" y="1110" width="250" height="60" as="geometry" />
        </mxCell>
        <mxCell id="TUvRqALWJ90GoiGurT2q-192" value="" style="edgeStyle=orthogonalEdgeStyle;rounded=0;orthogonalLoop=1;jettySize=auto;html=1;endArrow=none;endFill=0;" edge="1" parent="1">
          <mxGeometry relative="1" as="geometry">
            <mxPoint x="750" y="1090" as="sourcePoint" />
            <mxPoint x="930" y="1040" as="targetPoint" />
          </mxGeometry>
        </mxCell>
        <mxCell id="TUvRqALWJ90GoiGurT2q-193" value="" style="edgeStyle=orthogonalEdgeStyle;rounded=0;orthogonalLoop=1;jettySize=auto;html=1;endArrow=none;endFill=0;" edge="1" parent="1">
          <mxGeometry relative="1" as="geometry">
            <mxPoint x="750" y="1090" as="sourcePoint" />
            <mxPoint x="930" y="1140" as="targetPoint" />
          </mxGeometry>
        </mxCell>
        <mxCell id="TUvRqALWJ90GoiGurT2q-196" value="" style="endArrow=none;html=1;rounded=0;" edge="1" parent="1">
          <mxGeometry width="50" height="50" relative="1" as="geometry">
            <mxPoint x="930" y="1040" as="sourcePoint" />
            <mxPoint x="1010" y="1040" as="targetPoint" />
          </mxGeometry>
        </mxCell>
        <mxCell id="TUvRqALWJ90GoiGurT2q-197" value="" style="endArrow=none;html=1;rounded=0;entryX=0;entryY=0.5;entryDx=0;entryDy=0;" edge="1" parent="1" target="TUvRqALWJ90GoiGurT2q-183">
          <mxGeometry width="50" height="50" relative="1" as="geometry">
            <mxPoint x="930" y="1140" as="sourcePoint" />
            <mxPoint x="1020" y="1050" as="targetPoint" />
          </mxGeometry>
        </mxCell>
      </root>
    </mxGraphModel>
  </diagram>
</mxfile>
